<mxfile host="app.diagrams.net" modified="2022-03-26T02:30:45.865Z" agent="5.0 (Windows NT 10.0; Win64; x64) AppleWebKit/537.36 (KHTML, like Gecko) Chrome/99.0.4844.74 Safari/537.36 Edg/99.0.1150.46" etag="R2yqEEBnDIAKSeZrtl1v" version="17.1.3" type="github">
  <diagram id="dKjpgoluKJeW8YoT4a8Y" name="Page-1">
    <mxGraphModel dx="1117" dy="657" grid="1" gridSize="10" guides="1" tooltips="1" connect="1" arrows="1" fold="1" page="1" pageScale="1" pageWidth="850" pageHeight="1100" math="0" shadow="0">
      <root>
        <mxCell id="0" />
        <mxCell id="1" parent="0" />
        <mxCell id="nK9Fu9tXfIsyWZkDZiMI-1" value="«Component»&lt;br&gt;&lt;b&gt;Bill&lt;/b&gt;" style="html=1;dropTarget=0;" vertex="1" parent="1">
          <mxGeometry x="275" y="590" width="180" height="90" as="geometry" />
        </mxCell>
        <mxCell id="nK9Fu9tXfIsyWZkDZiMI-2" value="" style="shape=module;jettyWidth=8;jettyHeight=4;" vertex="1" parent="nK9Fu9tXfIsyWZkDZiMI-1">
          <mxGeometry x="1" width="20" height="20" relative="1" as="geometry">
            <mxPoint x="-27" y="7" as="offset" />
          </mxGeometry>
        </mxCell>
        <mxCell id="nK9Fu9tXfIsyWZkDZiMI-6" value="«Component»&lt;br&gt;&lt;b&gt;Doctor&lt;/b&gt;" style="html=1;dropTarget=0;" vertex="1" parent="1">
          <mxGeometry x="830" y="270" width="180" height="90" as="geometry" />
        </mxCell>
        <mxCell id="nK9Fu9tXfIsyWZkDZiMI-7" value="" style="shape=module;jettyWidth=8;jettyHeight=4;" vertex="1" parent="nK9Fu9tXfIsyWZkDZiMI-6">
          <mxGeometry x="1" width="20" height="20" relative="1" as="geometry">
            <mxPoint x="-27" y="7" as="offset" />
          </mxGeometry>
        </mxCell>
        <mxCell id="nK9Fu9tXfIsyWZkDZiMI-8" value="«Component»&lt;br&gt;&lt;b&gt;Student&lt;/b&gt;" style="html=1;dropTarget=0;" vertex="1" parent="1">
          <mxGeometry x="30" y="220" width="180" height="90" as="geometry" />
        </mxCell>
        <mxCell id="nK9Fu9tXfIsyWZkDZiMI-9" value="" style="shape=module;jettyWidth=8;jettyHeight=4;" vertex="1" parent="nK9Fu9tXfIsyWZkDZiMI-8">
          <mxGeometry x="1" width="20" height="20" relative="1" as="geometry">
            <mxPoint x="-27" y="7" as="offset" />
          </mxGeometry>
        </mxCell>
        <mxCell id="nK9Fu9tXfIsyWZkDZiMI-12" value="«Component»&lt;br&gt;&lt;b&gt;Nurse&lt;/b&gt;" style="html=1;dropTarget=0;" vertex="1" parent="1">
          <mxGeometry x="660" y="650" width="180" height="90" as="geometry" />
        </mxCell>
        <mxCell id="nK9Fu9tXfIsyWZkDZiMI-13" value="" style="shape=module;jettyWidth=8;jettyHeight=4;" vertex="1" parent="nK9Fu9tXfIsyWZkDZiMI-12">
          <mxGeometry x="1" width="20" height="20" relative="1" as="geometry">
            <mxPoint x="-27" y="7" as="offset" />
          </mxGeometry>
        </mxCell>
        <mxCell id="nK9Fu9tXfIsyWZkDZiMI-14" value="«Component»&lt;br&gt;&lt;b&gt;Surgery&lt;/b&gt;" style="html=1;dropTarget=0;" vertex="1" parent="1">
          <mxGeometry x="390" y="330" width="180" height="90" as="geometry" />
        </mxCell>
        <mxCell id="nK9Fu9tXfIsyWZkDZiMI-15" value="" style="shape=module;jettyWidth=8;jettyHeight=4;" vertex="1" parent="nK9Fu9tXfIsyWZkDZiMI-14">
          <mxGeometry x="1" width="20" height="20" relative="1" as="geometry">
            <mxPoint x="-27" y="7" as="offset" />
          </mxGeometry>
        </mxCell>
        <mxCell id="nK9Fu9tXfIsyWZkDZiMI-33" value="«Component»&lt;br&gt;&lt;b&gt;Ward&lt;br&gt;&lt;/b&gt;" style="html=1;dropTarget=0;" vertex="1" parent="1">
          <mxGeometry x="580" y="460" width="180" height="90" as="geometry" />
        </mxCell>
        <mxCell id="nK9Fu9tXfIsyWZkDZiMI-34" value="" style="shape=module;jettyWidth=8;jettyHeight=4;" vertex="1" parent="nK9Fu9tXfIsyWZkDZiMI-33">
          <mxGeometry x="1" width="20" height="20" relative="1" as="geometry">
            <mxPoint x="-27" y="7" as="offset" />
          </mxGeometry>
        </mxCell>
        <mxCell id="nK9Fu9tXfIsyWZkDZiMI-36" value="«Component»&lt;br&gt;&lt;b&gt;Appointment for Checkup&lt;/b&gt;" style="html=1;dropTarget=0;" vertex="1" parent="1">
          <mxGeometry x="480" y="180" width="180" height="90" as="geometry" />
        </mxCell>
        <mxCell id="nK9Fu9tXfIsyWZkDZiMI-37" value="" style="shape=module;jettyWidth=8;jettyHeight=4;" vertex="1" parent="nK9Fu9tXfIsyWZkDZiMI-36">
          <mxGeometry x="1" width="20" height="20" relative="1" as="geometry">
            <mxPoint x="-27" y="7" as="offset" />
          </mxGeometry>
        </mxCell>
        <mxCell id="nK9Fu9tXfIsyWZkDZiMI-62" value="" style="rounded=0;orthogonalLoop=1;jettySize=auto;html=1;endArrow=none;endFill=0;sketch=0;sourcePerimeterSpacing=0;targetPerimeterSpacing=0;exitX=0.984;exitY=0.93;exitDx=0;exitDy=0;exitPerimeter=0;" edge="1" target="nK9Fu9tXfIsyWZkDZiMI-64" parent="1" source="nK9Fu9tXfIsyWZkDZiMI-8">
          <mxGeometry relative="1" as="geometry">
            <mxPoint x="250" y="345" as="sourcePoint" />
          </mxGeometry>
        </mxCell>
        <mxCell id="nK9Fu9tXfIsyWZkDZiMI-63" value="Student details" style="rounded=0;orthogonalLoop=1;jettySize=auto;html=1;endArrow=halfCircle;endFill=0;entryX=0.5;entryY=0.5;endSize=6;strokeWidth=1;sketch=0;exitX=0;exitY=0.75;exitDx=0;exitDy=0;" edge="1" target="nK9Fu9tXfIsyWZkDZiMI-64" parent="1" source="nK9Fu9tXfIsyWZkDZiMI-14">
          <mxGeometry relative="1" as="geometry">
            <mxPoint x="290" y="345" as="sourcePoint" />
          </mxGeometry>
        </mxCell>
        <mxCell id="nK9Fu9tXfIsyWZkDZiMI-64" value="" style="ellipse;whiteSpace=wrap;html=1;align=center;aspect=fixed;resizable=0;points=[];outlineConnect=0;sketch=0;" vertex="1" parent="1">
          <mxGeometry x="265" y="340" width="10" height="10" as="geometry" />
        </mxCell>
        <mxCell id="nK9Fu9tXfIsyWZkDZiMI-65" value="" style="rounded=0;orthogonalLoop=1;jettySize=auto;html=1;endArrow=none;endFill=0;sketch=0;sourcePerimeterSpacing=0;targetPerimeterSpacing=0;exitX=1;exitY=0.5;exitDx=0;exitDy=0;" edge="1" target="nK9Fu9tXfIsyWZkDZiMI-67" parent="1" source="nK9Fu9tXfIsyWZkDZiMI-8">
          <mxGeometry relative="1" as="geometry">
            <mxPoint x="310" y="245" as="sourcePoint" />
          </mxGeometry>
        </mxCell>
        <mxCell id="nK9Fu9tXfIsyWZkDZiMI-69" value="Student Details" style="edgeLabel;html=1;align=center;verticalAlign=middle;resizable=0;points=[];" vertex="1" connectable="0" parent="nK9Fu9tXfIsyWZkDZiMI-65">
          <mxGeometry x="0.8171" relative="1" as="geometry">
            <mxPoint x="10" y="10" as="offset" />
          </mxGeometry>
        </mxCell>
        <mxCell id="nK9Fu9tXfIsyWZkDZiMI-66" value="" style="rounded=0;orthogonalLoop=1;jettySize=auto;html=1;endArrow=halfCircle;endFill=0;entryX=0.5;entryY=0.5;endSize=6;strokeWidth=1;sketch=0;exitX=0.016;exitY=0.599;exitDx=0;exitDy=0;exitPerimeter=0;" edge="1" target="nK9Fu9tXfIsyWZkDZiMI-67" parent="1" source="nK9Fu9tXfIsyWZkDZiMI-36">
          <mxGeometry relative="1" as="geometry">
            <mxPoint x="350" y="245" as="sourcePoint" />
          </mxGeometry>
        </mxCell>
        <mxCell id="nK9Fu9tXfIsyWZkDZiMI-67" value="" style="ellipse;whiteSpace=wrap;html=1;align=center;aspect=fixed;resizable=0;points=[];outlineConnect=0;sketch=0;" vertex="1" parent="1">
          <mxGeometry x="325" y="220" width="10" height="10" as="geometry" />
        </mxCell>
        <mxCell id="nK9Fu9tXfIsyWZkDZiMI-73" value="" style="rounded=0;orthogonalLoop=1;jettySize=auto;html=1;endArrow=none;endFill=0;sketch=0;sourcePerimeterSpacing=0;targetPerimeterSpacing=0;exitX=0.123;exitY=0.974;exitDx=0;exitDy=0;exitPerimeter=0;" edge="1" target="nK9Fu9tXfIsyWZkDZiMI-75" parent="1" source="nK9Fu9tXfIsyWZkDZiMI-36">
          <mxGeometry relative="1" as="geometry">
            <mxPoint x="495" y="285" as="sourcePoint" />
          </mxGeometry>
        </mxCell>
        <mxCell id="nK9Fu9tXfIsyWZkDZiMI-74" value="Student details" style="rounded=0;orthogonalLoop=1;jettySize=auto;html=1;endArrow=halfCircle;endFill=0;entryX=0.5;entryY=0.5;endSize=6;strokeWidth=1;sketch=0;exitX=0.75;exitY=0;exitDx=0;exitDy=0;" edge="1" target="nK9Fu9tXfIsyWZkDZiMI-75" parent="1" source="nK9Fu9tXfIsyWZkDZiMI-14">
          <mxGeometry relative="1" as="geometry">
            <mxPoint x="535" y="285" as="sourcePoint" />
          </mxGeometry>
        </mxCell>
        <mxCell id="nK9Fu9tXfIsyWZkDZiMI-75" value="" style="ellipse;whiteSpace=wrap;html=1;align=center;aspect=fixed;resizable=0;points=[];outlineConnect=0;sketch=0;" vertex="1" parent="1">
          <mxGeometry x="510" y="280" width="10" height="10" as="geometry" />
        </mxCell>
        <mxCell id="nK9Fu9tXfIsyWZkDZiMI-79" value="" style="rounded=0;orthogonalLoop=1;jettySize=auto;html=1;endArrow=none;endFill=0;sketch=0;sourcePerimeterSpacing=0;targetPerimeterSpacing=0;" edge="1" target="nK9Fu9tXfIsyWZkDZiMI-81" parent="1" source="nK9Fu9tXfIsyWZkDZiMI-6">
          <mxGeometry relative="1" as="geometry">
            <mxPoint x="740" y="265" as="sourcePoint" />
          </mxGeometry>
        </mxCell>
        <mxCell id="nK9Fu9tXfIsyWZkDZiMI-80" value="" style="rounded=0;orthogonalLoop=1;jettySize=auto;html=1;endArrow=halfCircle;endFill=0;entryX=0.5;entryY=0.5;endSize=6;strokeWidth=1;sketch=0;exitX=1.03;exitY=0.352;exitDx=0;exitDy=0;exitPerimeter=0;" edge="1" target="nK9Fu9tXfIsyWZkDZiMI-81" parent="1" source="nK9Fu9tXfIsyWZkDZiMI-36">
          <mxGeometry relative="1" as="geometry">
            <mxPoint x="780" y="265" as="sourcePoint" />
          </mxGeometry>
        </mxCell>
        <mxCell id="nK9Fu9tXfIsyWZkDZiMI-82" value="Doctor assigned" style="edgeLabel;html=1;align=center;verticalAlign=middle;resizable=0;points=[];" vertex="1" connectable="0" parent="nK9Fu9tXfIsyWZkDZiMI-80">
          <mxGeometry x="0.3904" relative="1" as="geometry">
            <mxPoint as="offset" />
          </mxGeometry>
        </mxCell>
        <mxCell id="nK9Fu9tXfIsyWZkDZiMI-81" value="" style="ellipse;whiteSpace=wrap;html=1;align=center;aspect=fixed;resizable=0;points=[];outlineConnect=0;sketch=0;" vertex="1" parent="1">
          <mxGeometry x="755" y="260" width="10" height="10" as="geometry" />
        </mxCell>
        <mxCell id="nK9Fu9tXfIsyWZkDZiMI-86" value="" style="rounded=0;orthogonalLoop=1;jettySize=auto;html=1;endArrow=none;endFill=0;sketch=0;sourcePerimeterSpacing=0;targetPerimeterSpacing=0;exitX=0;exitY=0.5;exitDx=0;exitDy=0;" edge="1" target="nK9Fu9tXfIsyWZkDZiMI-88" parent="1" source="nK9Fu9tXfIsyWZkDZiMI-6">
          <mxGeometry relative="1" as="geometry">
            <mxPoint x="670" y="365" as="sourcePoint" />
          </mxGeometry>
        </mxCell>
        <mxCell id="nK9Fu9tXfIsyWZkDZiMI-89" value="Doctor assigned" style="edgeLabel;html=1;align=center;verticalAlign=middle;resizable=0;points=[];" vertex="1" connectable="0" parent="nK9Fu9tXfIsyWZkDZiMI-86">
          <mxGeometry x="0.6599" y="-3" relative="1" as="geometry">
            <mxPoint y="1" as="offset" />
          </mxGeometry>
        </mxCell>
        <mxCell id="nK9Fu9tXfIsyWZkDZiMI-87" value="" style="rounded=0;orthogonalLoop=1;jettySize=auto;html=1;endArrow=halfCircle;endFill=0;entryX=0.5;entryY=0.5;endSize=6;strokeWidth=1;sketch=0;exitX=1;exitY=0.5;exitDx=0;exitDy=0;" edge="1" target="nK9Fu9tXfIsyWZkDZiMI-88" parent="1" source="nK9Fu9tXfIsyWZkDZiMI-14">
          <mxGeometry relative="1" as="geometry">
            <mxPoint x="710" y="365" as="sourcePoint" />
          </mxGeometry>
        </mxCell>
        <mxCell id="nK9Fu9tXfIsyWZkDZiMI-88" value="" style="ellipse;whiteSpace=wrap;html=1;align=center;aspect=fixed;resizable=0;points=[];outlineConnect=0;sketch=0;" vertex="1" parent="1">
          <mxGeometry x="685" y="360" width="10" height="10" as="geometry" />
        </mxCell>
        <mxCell id="nK9Fu9tXfIsyWZkDZiMI-90" value="" style="rounded=0;orthogonalLoop=1;jettySize=auto;html=1;endArrow=none;endFill=0;sketch=0;sourcePerimeterSpacing=0;targetPerimeterSpacing=0;exitX=1;exitY=0.75;exitDx=0;exitDy=0;" edge="1" target="nK9Fu9tXfIsyWZkDZiMI-92" parent="1" source="nK9Fu9tXfIsyWZkDZiMI-14">
          <mxGeometry relative="1" as="geometry">
            <mxPoint x="600" y="435" as="sourcePoint" />
          </mxGeometry>
        </mxCell>
        <mxCell id="nK9Fu9tXfIsyWZkDZiMI-91" value="" style="rounded=0;orthogonalLoop=1;jettySize=auto;html=1;endArrow=halfCircle;endFill=0;entryX=0.5;entryY=0.5;endSize=6;strokeWidth=1;sketch=0;exitX=0.603;exitY=-0.002;exitDx=0;exitDy=0;exitPerimeter=0;" edge="1" target="nK9Fu9tXfIsyWZkDZiMI-92" parent="1" source="nK9Fu9tXfIsyWZkDZiMI-33">
          <mxGeometry relative="1" as="geometry">
            <mxPoint x="640" y="435" as="sourcePoint" />
          </mxGeometry>
        </mxCell>
        <mxCell id="nK9Fu9tXfIsyWZkDZiMI-93" value="Surgery Details" style="edgeLabel;html=1;align=center;verticalAlign=middle;resizable=0;points=[];" vertex="1" connectable="0" parent="nK9Fu9tXfIsyWZkDZiMI-91">
          <mxGeometry x="0.457" y="2" relative="1" as="geometry">
            <mxPoint x="-13" y="-24" as="offset" />
          </mxGeometry>
        </mxCell>
        <mxCell id="nK9Fu9tXfIsyWZkDZiMI-92" value="" style="ellipse;whiteSpace=wrap;html=1;align=center;aspect=fixed;resizable=0;points=[];outlineConnect=0;sketch=0;" vertex="1" parent="1">
          <mxGeometry x="615" y="430" width="10" height="10" as="geometry" />
        </mxCell>
        <mxCell id="nK9Fu9tXfIsyWZkDZiMI-94" value="" style="rounded=0;orthogonalLoop=1;jettySize=auto;html=1;endArrow=none;endFill=0;sketch=0;sourcePerimeterSpacing=0;targetPerimeterSpacing=0;" edge="1" target="nK9Fu9tXfIsyWZkDZiMI-96" parent="1" source="nK9Fu9tXfIsyWZkDZiMI-8">
          <mxGeometry relative="1" as="geometry">
            <mxPoint x="110" y="385" as="sourcePoint" />
          </mxGeometry>
        </mxCell>
        <mxCell id="nK9Fu9tXfIsyWZkDZiMI-95" value="" style="rounded=0;orthogonalLoop=1;jettySize=auto;html=1;endArrow=halfCircle;endFill=0;entryX=0.5;entryY=0.5;endSize=6;strokeWidth=1;sketch=0;exitX=0.25;exitY=0;exitDx=0;exitDy=0;" edge="1" target="nK9Fu9tXfIsyWZkDZiMI-96" parent="1" source="nK9Fu9tXfIsyWZkDZiMI-1">
          <mxGeometry relative="1" as="geometry">
            <mxPoint x="150" y="385" as="sourcePoint" />
          </mxGeometry>
        </mxCell>
        <mxCell id="nK9Fu9tXfIsyWZkDZiMI-97" value="Student status where they are online or on campus" style="edgeLabel;html=1;align=center;verticalAlign=middle;resizable=0;points=[];" vertex="1" connectable="0" parent="nK9Fu9tXfIsyWZkDZiMI-95">
          <mxGeometry x="0.5896" y="2" relative="1" as="geometry">
            <mxPoint y="1" as="offset" />
          </mxGeometry>
        </mxCell>
        <mxCell id="nK9Fu9tXfIsyWZkDZiMI-96" value="" style="ellipse;whiteSpace=wrap;html=1;align=center;aspect=fixed;resizable=0;points=[];outlineConnect=0;sketch=0;" vertex="1" parent="1">
          <mxGeometry x="125" y="380" width="10" height="10" as="geometry" />
        </mxCell>
        <mxCell id="nK9Fu9tXfIsyWZkDZiMI-98" value="" style="rounded=0;orthogonalLoop=1;jettySize=auto;html=1;endArrow=none;endFill=0;sketch=0;sourcePerimeterSpacing=0;targetPerimeterSpacing=0;" edge="1" parent="1">
          <mxGeometry relative="1" as="geometry">
            <mxPoint x="464.3071428571429" y="419.89" as="sourcePoint" />
            <mxPoint x="444.997645443801" y="510.0009879289289" as="targetPoint" />
            <Array as="points" />
          </mxGeometry>
        </mxCell>
        <mxCell id="nK9Fu9tXfIsyWZkDZiMI-101" value="Surgery details" style="edgeLabel;html=1;align=center;verticalAlign=middle;resizable=0;points=[];" vertex="1" connectable="0" parent="nK9Fu9tXfIsyWZkDZiMI-98">
          <mxGeometry x="0.2987" y="1" relative="1" as="geometry">
            <mxPoint x="-18" y="61" as="offset" />
          </mxGeometry>
        </mxCell>
        <mxCell id="nK9Fu9tXfIsyWZkDZiMI-99" value="" style="rounded=0;orthogonalLoop=1;jettySize=auto;html=1;endArrow=halfCircle;endFill=0;entryX=0.5;entryY=0.5;endSize=6;strokeWidth=1;sketch=0;exitX=0.627;exitY=0.009;exitDx=0;exitDy=0;exitPerimeter=0;" edge="1" target="nK9Fu9tXfIsyWZkDZiMI-100" parent="1" source="nK9Fu9tXfIsyWZkDZiMI-1">
          <mxGeometry relative="1" as="geometry">
            <mxPoint x="430" y="485" as="sourcePoint" />
          </mxGeometry>
        </mxCell>
        <mxCell id="nK9Fu9tXfIsyWZkDZiMI-100" value="" style="ellipse;whiteSpace=wrap;html=1;align=center;aspect=fixed;resizable=0;points=[];outlineConnect=0;sketch=0;" vertex="1" parent="1">
          <mxGeometry x="445" y="510" width="10" height="10" as="geometry" />
        </mxCell>
        <mxCell id="nK9Fu9tXfIsyWZkDZiMI-102" value="" style="rounded=0;orthogonalLoop=1;jettySize=auto;html=1;endArrow=none;endFill=0;sketch=0;sourcePerimeterSpacing=0;targetPerimeterSpacing=0;" edge="1" target="nK9Fu9tXfIsyWZkDZiMI-104" parent="1" source="nK9Fu9tXfIsyWZkDZiMI-33">
          <mxGeometry relative="1" as="geometry">
            <mxPoint x="480" y="535" as="sourcePoint" />
          </mxGeometry>
        </mxCell>
        <mxCell id="nK9Fu9tXfIsyWZkDZiMI-103" value="" style="rounded=0;orthogonalLoop=1;jettySize=auto;html=1;endArrow=halfCircle;endFill=0;entryX=0.5;entryY=0.5;endSize=6;strokeWidth=1;sketch=0;exitX=0.998;exitY=0.657;exitDx=0;exitDy=0;exitPerimeter=0;" edge="1" target="nK9Fu9tXfIsyWZkDZiMI-104" parent="1" source="nK9Fu9tXfIsyWZkDZiMI-1">
          <mxGeometry relative="1" as="geometry">
            <mxPoint x="520" y="535" as="sourcePoint" />
          </mxGeometry>
        </mxCell>
        <mxCell id="nK9Fu9tXfIsyWZkDZiMI-105" value="Days in the ward" style="edgeLabel;html=1;align=center;verticalAlign=middle;resizable=0;points=[];" vertex="1" connectable="0" parent="nK9Fu9tXfIsyWZkDZiMI-103">
          <mxGeometry x="0.356" relative="1" as="geometry">
            <mxPoint as="offset" />
          </mxGeometry>
        </mxCell>
        <mxCell id="nK9Fu9tXfIsyWZkDZiMI-104" value="" style="ellipse;whiteSpace=wrap;html=1;align=center;aspect=fixed;resizable=0;points=[];outlineConnect=0;sketch=0;" vertex="1" parent="1">
          <mxGeometry x="550" y="580" width="10" height="10" as="geometry" />
        </mxCell>
        <mxCell id="nK9Fu9tXfIsyWZkDZiMI-106" value="" style="rounded=0;orthogonalLoop=1;jettySize=auto;html=1;endArrow=none;endFill=0;sketch=0;sourcePerimeterSpacing=0;targetPerimeterSpacing=0;exitX=0.424;exitY=-0.032;exitDx=0;exitDy=0;exitPerimeter=0;" edge="1" target="nK9Fu9tXfIsyWZkDZiMI-108" parent="1" source="nK9Fu9tXfIsyWZkDZiMI-12">
          <mxGeometry relative="1" as="geometry">
            <mxPoint x="540" y="435" as="sourcePoint" />
            <mxPoint x="670" y="580.8888753255209" as="targetPoint" />
          </mxGeometry>
        </mxCell>
        <mxCell id="nK9Fu9tXfIsyWZkDZiMI-109" value="Nurse assigned" style="edgeLabel;html=1;align=center;verticalAlign=middle;resizable=0;points=[];" vertex="1" connectable="0" parent="nK9Fu9tXfIsyWZkDZiMI-106">
          <mxGeometry x="0.6493" y="-1" relative="1" as="geometry">
            <mxPoint as="offset" />
          </mxGeometry>
        </mxCell>
        <mxCell id="nK9Fu9tXfIsyWZkDZiMI-107" value="" style="rounded=0;orthogonalLoop=1;jettySize=auto;html=1;endArrow=halfCircle;endFill=0;entryX=0.5;entryY=0.5;endSize=6;strokeWidth=1;sketch=0;exitX=0.5;exitY=1;exitDx=0;exitDy=0;" edge="1" target="nK9Fu9tXfIsyWZkDZiMI-108" parent="1" source="nK9Fu9tXfIsyWZkDZiMI-33">
          <mxGeometry relative="1" as="geometry">
            <mxPoint x="580" y="435" as="sourcePoint" />
          </mxGeometry>
        </mxCell>
        <mxCell id="nK9Fu9tXfIsyWZkDZiMI-108" value="" style="ellipse;whiteSpace=wrap;html=1;align=center;aspect=fixed;resizable=0;points=[];outlineConnect=0;sketch=0;" vertex="1" parent="1">
          <mxGeometry x="695" y="590" width="10" height="10" as="geometry" />
        </mxCell>
        <mxCell id="nK9Fu9tXfIsyWZkDZiMI-110" value="" style="rounded=0;orthogonalLoop=1;jettySize=auto;html=1;endArrow=none;endFill=0;sketch=0;sourcePerimeterSpacing=0;targetPerimeterSpacing=0;exitX=0.75;exitY=1;exitDx=0;exitDy=0;" edge="1" target="nK9Fu9tXfIsyWZkDZiMI-112" parent="1" source="nK9Fu9tXfIsyWZkDZiMI-8">
          <mxGeometry relative="1" as="geometry">
            <mxPoint x="410" y="455" as="sourcePoint" />
          </mxGeometry>
        </mxCell>
        <mxCell id="nK9Fu9tXfIsyWZkDZiMI-111" value="Student stays" style="rounded=0;orthogonalLoop=1;jettySize=auto;html=1;endArrow=halfCircle;endFill=0;entryX=0.5;entryY=0.5;endSize=6;strokeWidth=1;sketch=0;exitX=0;exitY=0.5;exitDx=0;exitDy=0;" edge="1" target="nK9Fu9tXfIsyWZkDZiMI-112" parent="1" source="nK9Fu9tXfIsyWZkDZiMI-33">
          <mxGeometry relative="1" as="geometry">
            <mxPoint x="450" y="455" as="sourcePoint" />
          </mxGeometry>
        </mxCell>
        <mxCell id="nK9Fu9tXfIsyWZkDZiMI-112" value="" style="ellipse;whiteSpace=wrap;html=1;align=center;aspect=fixed;resizable=0;points=[];outlineConnect=0;sketch=0;" vertex="1" parent="1">
          <mxGeometry x="425" y="450" width="10" height="10" as="geometry" />
        </mxCell>
      </root>
    </mxGraphModel>
  </diagram>
</mxfile>
